<svg xmlns="http://www.w3.org/2000/svg" width="100" height="100"><defs><linearGradient id="a" x1="200.054" y1="391.644" x2="199.373" y2="1.54" gradientTransform="scale(.93794 1.06616)" gradientUnits="userSpaceOnUse"><stop stop-color="#70b6fc" offset="0%"/><stop stop-color="#5091d8" offset="28.889%"/><stop stop-color="#42629c" offset="95%"/><stop stop-color="#415f98" offset="98.889%"/></linearGradient><linearGradient id="c" x1="400.748" y1="247.407" x2="400.748" y2="20.876" gradientTransform="matrix(.1442 0 0 .34655 9.02 327.182)" gradientUnits="userSpaceOnUse"><stop stop-color="#70b6fc" offset="0%"/><stop stop-color="#5091d8" offset="28.889%"/><stop stop-color="#42629c" offset="95%"/><stop stop-color="#415f98" offset="98.889%"/></linearGradient><linearGradient id="d" x1="188.779" y1="239.176" x2="188.779" y2="20.182" gradientTransform="matrix(.1394 0 0 .35848 9.02 327.182)" gradientUnits="userSpaceOnUse"><stop stop-color="#70b6fc" offset="0%"/><stop stop-color="#5091d8" offset="28.889%"/><stop stop-color="#42629c" offset="95%"/><stop stop-color="#415f98" offset="98.889%"/></linearGradient><filter id="b" x="-1" y="-1" width="3" height="3"><feOffset result="out" in="SourceGraphic" dy="3"/><feColorMatrix result="out" in="out" values="0 0 0 0 0 0 0 0 0 0 0 0 0 0 0 0 0 0 0.3608 0"/><feGaussianBlur result="out" in="out" stdDeviation="6"/><feBlend in="SourceGraphic" in2="out" result="Drop_Shadow1"/></filter></defs><path transform="matrix(.2341 0 0 .2341 6.224 .967)" d="M187 414.915l148.777-41.085L367.747 4H6.253l31.97 367.83L187 414.915z" fill="url(#a)" filter="url(#b)"/><path d="M50.6 412.922l-.126-78.505H83.14l-5.36 70.834-27.18 7.671z" fill="url(#c)" transform="translate(-3.223 -341.662) scale(1.04721)"/><path d="M76.314 19.621H23.086l4.77 54.106 21.622 6.052 22.317-6.086 1.249-16.855-10.925.156-.468 8.115-12.017 3.59-11.86-3.434-1.25-13.421 36.676.312 1.092-11.237-38.47-.156-1.014-10.69 40.599-.064.907-10.388z" fill="#fff"/><path d="M50.6 412.922l-.098-78.505h-30.43l5.36 71.282 25.168 7.223z" opacity=".302" fill="url(#d)" transform="translate(-3.223 -341.662) scale(1.04721)"/></svg>