<svg xmlns="http://www.w3.org/2000/svg" xml:space="preserve" width="100" height="100"><defs><linearGradient id="a" x1="200.054" y1="391.644" x2="199.373" y2="1.54" gradientTransform="scale(.93794 1.06616)" gradientUnits="userSpaceOnUse"><stop stop-color="#70b6fc" offset="0%"/><stop stop-color="#5091d8" offset="28.889%"/><stop stop-color="#42629c" offset="95%"/><stop stop-color="#415f98" offset="98.889%"/></linearGradient><linearGradient id="b" x1="400.748" y1="247.407" x2="400.748" y2="20.876" gradientTransform="matrix(.1442 0 0 .34655 9.02 327.182)" gradientUnits="userSpaceOnUse"><stop stop-color="#70b6fc" offset="0%"/><stop stop-color="#5091d8" offset="28.889%"/><stop stop-color="#42629c" offset="95%"/><stop stop-color="#415f98" offset="98.889%"/></linearGradient><linearGradient id="c" x1="188.779" y1="239.176" x2="188.779" y2="20.182" gradientTransform="matrix(.1394 0 0 .35848 9.02 327.182)" gradientUnits="userSpaceOnUse"><stop stop-color="#70b6fc" offset="0%"/><stop stop-color="#5091d8" offset="28.889%"/><stop stop-color="#42629c" offset="95%"/><stop stop-color="#415f98" offset="98.889%"/></linearGradient></defs><path transform="matrix(.2341 0 0 .2341 6.224 .967)" d="m187 414.915 148.777-41.085L367.747 4H6.253l31.97 367.83L187 414.915Z" style="fill:url(#a);filter:url(#filter1)"/><path d="m50.6 412.922-.126-78.505H83.14l-5.36 70.834-27.18 7.671z" style="fill:url(#b)" transform="translate(-3.223 -341.662) scale(1.04721)"/><path style="fill:#fff" d="M75.95 344.996H25.124l4.555 51.666 20.647 5.78 21.311-5.813 1.192-16.095-10.432.15-.447 7.749-11.475 3.428-11.326-3.28-1.192-12.815 35.021.298 1.044-10.73-36.736-.15-.969-10.208 38.769-.06.866-9.92z" transform="translate(-3.223 -341.662) scale(1.04721)"/><path d="m50.6 412.922-.098-78.505h-30.43l5.36 71.282 25.168 7.223z" style="opacity:.30199998;fill:url(#c)" transform="translate(-3.223 -341.662) scale(1.04721)"/></svg>